<svg width="83" height="40" viewBox="0 0 83 40" fill="none" xmlns="http://www.w3.org/2000/svg">
<g clip-path="url(#clip0_11_1810)">
<path d="M30.3859 2.61643C28.0447 8.63099 26.3971 14.9163 25.8568 21.3709C25.3966 26.8879 25.5367 32.8381 28.5583 37.6511C28.9051 38.2028 29.7589 37.6748 29.412 37.1197C26.3804 32.2932 26.3871 26.238 26.9141 20.7244C27.501 14.5812 29.1285 8.59376 31.3564 2.8669C31.5898 2.26104 30.6193 2.01735 30.3859 2.61643Z" fill="#727272"/>
<path d="M60.7883 1.68554C66.1144 5.74714 66.121 13.1934 66.6947 19.3061C66.9848 22.3895 67.385 25.4831 67.5251 28.5801C67.6552 31.4097 67.4217 34.4153 65.2139 36.419C64.7337 36.8556 65.4574 37.5562 65.9343 37.123C67.8786 35.3596 68.4789 32.8346 68.5456 30.2724C68.6424 26.6238 68.032 22.9142 67.6919 19.2892C67.0949 12.9192 67.0215 5.1819 61.4786 0.954448C60.9717 0.565212 60.2747 1.29292 60.7883 1.68554Z" fill="#727272"/>
<path d="M28.7582 37.8541C31.583 38.8864 34.4712 39.1437 37.4427 39.3975C40.7311 39.6784 44.0495 40.1015 47.3546 39.9831C50.7096 39.8646 54.0747 39.3806 57.4098 39.015C60.328 38.6935 63.2228 38.2873 65.9443 37.1095C66.5279 36.8556 66.2511 35.8775 65.6574 36.1347C62.836 37.3566 59.8411 37.7356 56.8162 38.0606C53.6679 38.399 50.4995 38.856 47.3345 38.9677C44.2329 39.0794 41.1246 38.6969 38.0364 38.4363C34.9581 38.1723 31.9365 37.9421 29.005 36.8725C28.398 36.6458 28.1579 37.6341 28.7582 37.8541Z" fill="#727272"/>
<path d="M30.6258 3.18507C32.9537 4.1497 35.3316 5.00264 37.8429 5.30387C40.4543 5.61526 43.1157 5.16848 45.7437 5.23618C47.2012 5.27341 48.5118 5.4731 49.9826 5.25987C51.2499 5.07371 52.5173 4.81648 53.7479 4.46109C56.2992 3.72323 58.7705 2.69429 61.2752 1.80751C61.8788 1.59428 61.5987 0.619492 60.9884 0.832726C56.0858 2.56906 51.4901 4.59648 46.1973 4.24786C43.9962 4.10231 41.805 4.43063 39.6105 4.41032C36.6557 4.37986 33.8142 3.41861 31.1061 2.29829C30.5225 2.05459 30.0289 2.93799 30.6258 3.18507Z" fill="#727272"/>
<path d="M0.663599 6.24136C6.26652 7.13491 11.4792 9.82572 15.3846 14.0193C19.1633 18.0775 21.2877 23.4253 25.4099 27.1924C25.8868 27.6291 26.5838 26.898 26.1035 26.4614C21.7346 22.4675 19.5501 16.6898 15.3479 12.5368C11.4125 8.64785 6.32322 6.11951 0.910395 5.25642C0.276731 5.15488 0.0266002 6.13982 0.663599 6.24136Z" fill="#727272"/>
<path d="M1.53734 4.42374C6.62333 3.24587 12.0295 3.9465 16.5985 6.54254C20.2438 8.61396 23.2353 11.8869 27.5876 12.3337C28.2279 12.398 28.2013 11.3826 27.5676 11.3183C22.685 10.8174 19.1632 6.353 14.7609 4.51851C10.4687 2.73141 5.76288 2.40648 1.25386 3.44895C0.62353 3.5945 0.910347 4.56928 1.53734 4.42374Z" fill="#727272"/>
<path d="M0.723598 3.74347C0.340064 4.27825 0.0932688 4.90441 0.0065569 5.55765C-0.0301289 5.83181 0.0865987 6.0992 0.37008 6.17366C0.60687 6.23797 0.940378 6.07889 0.977064 5.80473C1.05377 5.22257 1.25721 4.71148 1.59739 4.23425C1.75747 4.01086 1.6174 3.66901 1.40395 3.54377C1.14715 3.39823 0.880347 3.52347 0.723598 3.74347Z" fill="#727272"/>
<path d="M64.8103 4.67088C66.8781 0.653282 73.4482 0.135428 77.1568 1.97669C81.1755 3.97364 83.0298 8.81033 81.3823 13.0412C79.9482 16.7271 76.2629 18.5311 73.2314 20.6567C71.954 21.5536 70.5333 22.5622 69.6495 23.8856C68.7257 25.27 68.8457 27.03 67.9319 28.4109C67.5718 28.9559 68.4489 29.4433 68.8057 28.9051C69.3827 28.0352 69.5494 27.1078 69.8062 26.1128C70.1698 24.7217 70.8968 23.8281 71.9407 22.9176C73.7383 21.3505 75.8461 20.2167 77.7604 18.812C81.1488 16.3243 83.5267 12.7907 82.8964 8.36355C82.3194 4.33242 79.1244 0.998518 75.1791 0.264045C71.2036 -0.477197 65.9642 0.236968 63.9332 4.18011C63.6364 4.7555 64.5102 5.24966 64.8103 4.67088Z" fill="#727272"/>
<path d="M65.8242 7.22628C67.2082 4.42378 70.3599 3.69946 73.2214 3.92285C75.129 4.07177 76.3063 4.83332 77.3035 6.4952C78.4074 8.32969 78.3541 9.88325 77.7304 11.8396C76.7499 14.9061 74.9823 16.3277 72.2642 17.7661C70.4833 18.7071 67.7652 19.9391 67.0548 22.0207C66.8447 22.6401 67.8152 22.8838 68.0253 22.2711C68.6723 20.3757 71.8473 19.1437 73.4815 18.2671C74.8989 17.5089 76.2263 16.6729 77.1834 15.3359C78.6976 13.2239 79.9416 9.77494 78.8443 7.27367C77.5036 4.21393 75.4525 2.85668 72.1775 2.88037C69.2627 2.90068 66.3245 3.95669 64.9537 6.73212C64.6636 7.31428 65.5374 7.80845 65.8242 7.22628Z" fill="#727272"/>
<path d="M47.3078 14.571C44.3663 15.0144 41.8817 17.2348 41.5849 20.3385C41.3014 23.2967 43.2691 27.1485 46.6108 26.9217C49.6591 26.7152 52.3672 23.7164 52.6473 20.7176C52.9575 17.4175 50.5195 14.5406 47.2078 14.6861C46.5641 14.7132 46.5841 15.7286 47.2278 15.7015C50.1327 15.5729 52.1337 18.2671 51.5901 21.1035C51.1499 23.3983 48.9687 25.7134 46.5908 25.9097C43.6693 26.15 42.1785 22.3964 42.6421 19.9594C43.0856 17.624 45.0567 15.9317 47.3279 15.5898C47.9549 15.4917 47.9448 14.4729 47.3078 14.571Z" fill="#727272"/>
<path d="M47.8815 15.0144C47.7048 12.8617 51.0365 9.58877 52.7041 12.0799C53.221 12.8516 53.7213 14.2224 53.5078 15.1735C53.2777 16.1923 52.2938 16.9538 51.5401 17.58C51.0432 17.9929 51.7702 18.6935 52.2605 18.284C53.4478 17.299 54.6684 16.1178 54.555 14.4288C54.4616 13.0479 53.7079 11.2269 52.5206 10.4688C49.986 8.84753 46.6776 12.5605 46.881 15.0381C46.9344 15.6846 47.9349 15.6676 47.8815 15.0144Z" fill="#727272"/>
<path d="M52.5274 18.5108C53.7814 17.756 57.0264 17.9557 56.6896 20.1355C56.3694 22.2136 53.718 22.2983 52.1472 22.3186C51.5035 22.3253 51.5235 23.3407 52.1672 23.334C54.3717 23.3069 58.227 22.6029 57.6767 19.4382C57.2432 16.9539 53.788 16.568 52.0038 17.6443C51.4501 17.9794 51.9704 18.8459 52.5274 18.5108Z" fill="#727272"/>
<path d="M51.52 23.52C53.2743 24.3053 55.2487 26.6373 53.5811 28.5192C51.6301 30.7192 48.8086 28.5429 48.0883 26.4207C47.8781 25.8047 46.9176 26.089 47.1278 26.7118C48.0616 29.4534 51.4267 31.8226 54.0214 29.4974C56.5427 27.2398 54.5383 23.7671 52.007 22.6299C51.4233 22.3692 50.9331 23.256 51.52 23.52Z" fill="#727272"/>
<path d="M46.6476 26.6745C46.7377 28.3804 46.2674 30.9189 44.0063 30.6143C42.9791 30.4755 42.1886 29.538 42.2353 28.4752C42.2754 27.5207 42.939 26.4071 43.3026 25.5339C43.5494 24.9382 42.6789 24.4373 42.4288 25.0397C41.8985 26.3191 40.978 27.8118 41.3182 29.257C41.595 30.4281 42.5055 31.3589 43.6728 31.5924C46.651 32.1915 47.7749 29.0743 47.6482 26.6508C47.6148 26.001 46.6143 26.0179 46.6476 26.6745Z" fill="#727272"/>
<path d="M43.1656 24.2715C41.3013 25.0533 38.4232 24.8536 37.7728 22.481C37.4894 21.4385 37.8062 20.2065 38.77 19.6412C39.7072 19.0929 40.9178 19.2385 41.9383 19.3637C42.5687 19.4415 42.8221 18.4566 42.1851 18.3787C40.7711 18.2061 39.1669 18.0538 37.9496 18.9745C36.9391 19.7394 36.5288 21.0797 36.7223 22.3151C37.2225 25.5069 40.9011 26.309 43.4491 25.2429C44.0428 24.9992 43.7626 24.021 43.1656 24.2715Z" fill="#727272"/>
<path d="M42.5454 18.4938C40.8612 17.58 39.9808 14.2224 41.4582 12.7703C43.3992 10.8648 45.7838 13.5657 46.9577 15.0279C47.3646 15.5322 48.0516 14.7978 47.6514 14.2968C46.1173 12.3879 42.7989 9.46691 40.5311 12.2186C38.8635 14.2461 39.8607 18.1892 42.0585 19.384C42.6255 19.692 43.1157 18.8052 42.5454 18.4938Z" fill="#727272"/>
<path d="M44.153 25.9571C43.3626 26.7288 42.849 28.8171 44.0629 29.45C45.517 30.2116 46.1607 27.6223 46.3541 26.6881C46.4408 26.2617 45.7938 26.0958 45.7071 26.5223C45.6204 26.9454 45.5104 27.3617 45.3569 27.7679C45.2802 27.9676 45.1969 28.1672 45.0968 28.3568C44.9434 28.6513 44.8533 28.8408 44.4998 28.8002C43.546 28.6817 44.1997 26.8506 44.6366 26.4275C44.9434 26.1229 44.4631 25.6558 44.153 25.9571Z" fill="#727272"/>
<path d="M48.4519 26.0044C48.2818 26.9792 49.369 27.7441 50.1461 28.0927C50.9331 28.4448 52.0304 28.5632 52.7674 28.0115C53.4711 27.4835 53.3611 26.5256 53.0576 25.7946C52.644 24.7995 51.7936 24.1293 50.8098 23.7773C50.4029 23.6318 50.2428 24.2918 50.6463 24.4339C51.24 24.6472 51.7736 25.0059 52.1504 25.5272C52.2805 25.7099 52.3806 25.9029 52.4639 26.1127C52.6574 26.6069 52.6874 26.8303 52.3439 27.2601C52.0504 27.6257 51.897 27.7103 51.4501 27.7137C51.1699 27.7137 50.8798 27.6561 50.6163 27.5614C50.2128 27.4158 48.9955 26.7727 49.0989 26.177C49.1722 25.7438 48.5286 25.5746 48.4519 26.0044Z" fill="#727272"/>
<path d="M52.3206 21.6248C53.1577 21.838 53.9914 21.4725 54.6951 21.0223C55.2087 20.694 55.8857 20.0949 55.8257 19.401C55.7757 18.8223 55.2087 18.5481 54.7018 18.4872C53.828 18.3789 52.9709 18.7613 52.2605 19.242C51.9037 19.4823 52.2505 20.0644 52.6074 19.8207C52.9776 19.5669 53.3711 19.3435 53.808 19.2318C54.2115 19.1269 55.3855 18.9577 55.0286 19.8072C54.7151 20.562 53.1943 21.1475 52.484 20.9681C52.0671 20.8632 51.9037 21.5198 52.3206 21.6248Z" fill="#727272"/>
<path d="M49.209 15.3056C49.1556 14.7911 49.2624 14.28 49.6292 13.9009C49.896 13.62 50.543 13.2477 50.9232 13.4643C51.2601 13.6572 51.2367 14.4696 51.2367 14.8453C51.2334 15.3834 51.12 15.8945 50.9432 16.3988C50.7998 16.8084 51.4468 16.9708 51.5903 16.5647C51.8771 15.7456 51.9771 14.8859 51.8404 14.0228C51.747 13.4305 51.647 12.8415 50.9899 12.7535C49.5358 12.5538 48.4053 13.9246 48.5487 15.3225C48.5853 15.749 49.2524 15.7388 49.209 15.3056Z" fill="#727272"/>
<path d="M43.0158 17.5698C42.4988 16.9098 42.0553 15.7116 42.2287 14.8621C42.3321 14.3476 42.4522 14.1987 42.9791 14.1445C43.506 14.0904 43.6361 14.2494 44.0163 14.5608C44.4032 14.8756 44.78 15.2005 45.1636 15.5187C45.4937 15.7928 45.9573 15.3088 45.6238 15.0313C44.6833 14.2461 43.1725 12.4353 41.9752 13.8128C41.0481 14.8824 41.6717 16.9402 42.4455 17.9252C42.709 18.2603 43.2826 17.9116 43.0158 17.5698Z" fill="#727272"/>
<path d="M41.8185 20.2065C40.5178 19.6785 38.8202 20.8529 39.0203 22.3354C39.2071 23.7401 41.4383 24.2613 42.4421 23.4693C42.7756 23.2053 42.4321 22.6231 42.0953 22.8905C41.5483 23.3237 40.1876 23.2087 39.7874 22.5622C39.2004 21.6246 40.6312 20.4434 41.4983 20.7988C41.8885 20.9579 42.2153 20.3689 41.8185 20.2065Z" fill="#727272"/>
</g>
<defs>
<clipPath id="clip0_11_1810">
<rect width="83" height="40" fill="white"/>
</clipPath>
</defs>
</svg>
