<svg width="68" height="49" viewBox="0 0 68 49" fill="none" xmlns="http://www.w3.org/2000/svg">
<g clip-path="url(#clip0_11_1476)">
<path d="M7.24876 2.77657C24.0215 1.02379 40.9382 3.71439 57.6697 1.28998C58.4514 1.17531 58.1181 -0.00822137 57.3406 0.106446C40.7283 2.51037 23.9063 -0.192509 7.24876 1.54798C6.4671 1.62989 6.45887 2.85847 7.24876 2.77657Z" fill="#727272"/>
<path d="M7.0841 1.57261C5.44673 2.08043 5.65243 4.20997 6.52048 5.34027C7.94392 7.19133 11.1405 7.23229 13.2263 7.03571C14.012 6.962 14.0162 5.73342 13.2263 5.80713C11.8769 5.93408 10.4781 5.9218 9.16577 5.53684C8.48285 5.33617 7.7629 5.0536 7.37208 4.41474C7.17049 4.08302 6.78378 2.95272 7.41322 2.76024C8.17019 2.52272 7.84518 1.33509 7.0841 1.57261Z" fill="#727272"/>
<path d="M54.7816 1.67495C55.6496 1.62172 56.4889 1.47429 57.3528 1.35962C58.7228 1.17533 59.4263 1.54391 59.6649 2.97725C59.8624 4.16898 59.1095 4.51708 58.0481 4.85289C57.5462 5.01261 57.0196 5.11089 56.5012 5.21327C55.1148 5.48356 53.7243 5.61871 52.3132 5.66785C51.5233 5.69652 51.5192 6.9251 52.3132 6.89643C54.7199 6.81043 61.4792 6.72034 61.2159 2.9322C61.15 1.9862 60.2326 0.679801 59.3728 0.253892C58.0892 -0.384971 56.0898 0.364465 54.7775 0.446371C53.9917 0.495514 53.9876 1.7241 54.7816 1.67495Z" fill="#727272"/>
<path d="M9.05479 6.77356C8.88611 9.37406 5.92405 10.8443 4.3525 12.6298C3.11831 14.0345 2.14741 15.6521 1.44392 17.3762C-0.0700261 21.0702 -0.358005 25.2105 0.41131 29.1051C1.99519 37.095 8.0592 43.6884 15.633 46.5182C16.3777 46.7967 16.6986 45.6091 15.9622 45.3347C8.09623 42.3943 1.98285 35.0269 1.29993 26.5783C0.974925 22.5649 1.82652 18.3878 4.07687 15.0092C5.94462 12.208 10.0545 10.4143 10.289 6.77356C10.3383 5.98726 9.10415 5.98726 9.05479 6.77356Z" fill="#727272"/>
<path d="M55.8225 6.24941C55.8225 9.48058 58.1798 11.5077 60.5782 13.3138C62.6393 14.8618 64.2356 16.3688 65.2517 18.7973C66.1362 20.9064 66.6258 23.1834 66.7368 25.4645C67.14 33.8557 62.2444 41.6449 54.7199 45.3102C54.0082 45.6583 54.6294 46.7189 55.3411 46.3708C62.3308 42.9677 67.2593 36.0507 67.9176 28.3025C68.2508 24.3833 67.5679 20.0669 65.5685 16.6309C63.3675 12.8428 57.0567 11.1064 57.0525 6.24941C57.0567 5.45902 55.8225 5.45902 55.8225 6.24941Z" fill="#727272"/>
<path d="M15.2668 45.6172C14.4687 47.3823 15.9003 48.9058 17.6776 48.9877C19.607 49.0819 21.6435 48.6355 23.577 48.5536C25.8191 48.4553 28.0613 48.4512 30.3034 48.4839C38.6712 48.6109 47.0349 49.2457 55.3658 48.1154C55.6496 48.0785 55.7936 47.7673 55.8183 47.5215C55.8841 46.8335 55.8265 46.3257 55.6249 45.6787C55.3904 44.9251 54.2015 45.2487 54.436 46.0063C54.6458 46.5018 54.6952 47.0096 54.5841 47.5215C54.7363 47.325 54.8844 47.1284 55.0366 46.9277C48.5407 47.8082 41.9871 47.5871 35.4541 47.3823C32.2863 47.284 29.1144 47.1939 25.9467 47.2472C24.4986 47.2717 23.0504 47.3291 21.6023 47.4274C20.8124 47.4806 20.0267 47.5543 19.2409 47.6321C18.6608 47.6895 15.4437 48.185 16.3282 46.2274C16.6532 45.519 15.5918 44.8965 15.2668 45.6172Z" fill="#727272"/>
<path d="M7.0801 13.2237C2.05281 19.3789 1.66199 27.9708 6.17502 34.5232C6.39718 34.8467 6.93199 34.5396 6.70984 34.212C2.36136 27.9011 2.66168 19.6041 7.52029 13.6537C7.76302 13.3547 7.33105 12.9165 7.0801 13.2237Z" fill="#727272"/>
<path d="M7.41333 36.8042C7.8165 37.3858 8.27727 37.9222 8.79152 38.4096C9.07949 38.6799 9.51558 38.2499 9.2276 37.9755C8.75038 37.525 8.32252 37.0336 7.94404 36.4971C7.72188 36.1736 7.18706 36.4766 7.41333 36.8042Z" fill="#727272"/>
<path d="M10.865 40.3385C11.264 40.3385 11.264 39.7242 10.865 39.7242C10.4659 39.7242 10.4659 40.3385 10.865 40.3385Z" fill="#727272"/>
<path d="M54.6294 6.28217C54.3126 7.46161 54.0411 8.64924 54.506 9.82868C54.938 10.9221 55.8142 11.9091 56.5589 12.8141C58.3443 14.9764 61.9976 17.1592 62.1703 20.1734C62.1909 20.5665 62.808 20.5706 62.7874 20.1734C62.6599 17.9169 60.9896 16.4712 59.451 15.0051C58.4595 14.0591 57.5257 13.0558 56.67 11.9828C56.094 11.2579 55.444 10.4921 55.1108 9.61982C54.7035 8.55914 54.938 7.51485 55.2218 6.45008C55.3247 6.06512 54.7282 5.90131 54.6294 6.28217Z" fill="#727272"/>
<path d="M62.4378 21.5986C62.5242 22.3849 62.6105 23.1711 62.6969 23.9574C62.7381 24.3465 63.3593 24.3506 63.314 23.9574C63.2276 23.1711 63.1412 22.3849 63.0549 21.5986C63.0137 21.2095 62.3966 21.2054 62.4378 21.5986Z" fill="#727272"/>
<path d="M62.4954 25.575C62.5406 25.8044 62.5036 26.0214 62.4172 26.2344C62.3555 26.39 62.4872 26.5702 62.6311 26.6111C62.808 26.6603 62.9479 26.5497 63.0096 26.3982C63.1372 26.0788 63.1536 25.747 63.0878 25.4112C63.0179 25.0263 62.4213 25.1901 62.4954 25.575Z" fill="#727272"/>
<path d="M35.7423 21.0824C37.2151 18.2977 39.9879 16.4753 43.2091 16.635C47.0434 16.8234 51.0751 20.1446 48.3887 24.0679C46.813 26.3654 43.9826 27.8519 41.8968 29.662C39.5806 31.6728 37.4619 33.8884 35.5078 36.2554C35.0059 36.8615 35.8739 37.7338 36.3799 37.1236C39.3585 33.5157 42.7278 30.4647 46.4304 27.6144C48.9029 25.706 51.6387 22.8106 50.1371 19.4566C48.8947 16.68 45.4636 15.3163 42.5715 15.3982C39.1651 15.4965 36.2442 17.495 34.6726 20.46C34.3065 21.1603 35.372 21.7827 35.7423 21.0824Z" fill="#727272"/>
<path d="M35.4502 20.1283C32.8131 17.1756 29.5219 14.1328 25.2516 14.354C22.0838 14.5178 19.3563 16.9094 18.8996 20.0587C18.336 23.896 21.2158 27.2623 24.0215 29.486C27.469 32.2176 32.6691 33.1636 35.2486 36.8657C35.697 37.5128 36.7666 36.8985 36.3141 36.2473C34.7055 33.9376 32.3647 32.7499 29.8798 31.5541C26.7203 30.0348 23.606 28.155 21.5737 25.2228C19.3069 21.9589 19.6813 16.9667 24.075 15.7709C28.3741 14.6038 31.9944 18.1093 34.5739 20.9965C35.1046 21.5903 35.9767 20.718 35.4502 20.1283Z" fill="#727272"/>
</g>
<defs>
<clipPath id="clip0_11_1476">
<rect width="68" height="49" fill="white"/>
</clipPath>
</defs>
</svg>
