<svg width="35" height="39" viewBox="0 0 35 39" fill="none" xmlns="http://www.w3.org/2000/svg">
<g clip-path="url(#clip0_11_1506)">
<path d="M15.472 12.629C14.2831 14.782 12.4689 16.507 10.1405 17.4C9.23138 17.7507 8.03427 17.7303 8.15357 16.4866C8.22762 15.7118 9.06683 15.039 9.67567 14.676C10.7123 14.0562 12.0411 13.8523 13.1559 13.3711C13.8799 13.0571 13.2547 12.001 12.5347 12.315C10.5437 13.1754 8.36338 13.3793 7.23209 15.4671C6.62736 16.5844 6.4299 18.1381 7.79156 18.7742C9.26841 19.4634 11.3006 18.3501 12.5265 17.5672C14.2296 16.4825 15.5666 15.0022 16.5333 13.2447C16.92 12.5556 15.8546 11.9357 15.472 12.629Z" fill="#46A358"/>
<path d="M12.8968 12.1191C11.3994 12.2822 9.91435 12.2904 8.42928 12.0131C7.88626 11.9111 7.34735 11.7725 6.82079 11.6053C6.3765 11.4748 5.94867 11.3158 5.52495 11.1241C4.89554 10.333 4.95725 9.89262 5.7183 9.79476C7.94796 8.09024 11.4323 9.88039 13.6209 10.7082C14.3655 10.9895 14.6863 9.80699 13.95 9.5297C12.0453 8.80793 9.95549 7.72324 7.86158 7.95567C6.66035 8.08616 3.89178 8.60404 3.57091 10.1006C2.83043 13.5667 11.1073 13.5422 12.8968 13.3465C13.6785 13.2568 13.6867 12.0335 12.8968 12.1191Z" fill="#46A358"/>
<path d="M14.353 9.55004C12.4812 8.07796 10.8192 5.78624 10.9097 3.30286C10.9509 2.19778 11.6584 1.72884 12.6828 2.22633C13.2463 2.49954 13.6372 3.19684 13.9457 3.72288C14.6615 4.95437 14.9618 6.36121 15.2251 7.74358C15.3732 8.51428 16.5621 8.18806 16.414 7.41736C16.019 5.35399 15.4554 3.205 13.9169 1.66359C13.0078 0.754243 11.4939 -0.289671 10.4243 0.933666C7.92312 3.7922 11.1977 8.61623 13.4808 10.4145C14.0979 10.8998 14.9782 10.0394 14.353 9.55004Z" fill="#46A358"/>
<path d="M16.3853 7.75594C16.6568 5.79044 17.5207 2.05111 19.7998 1.41497C21.9184 0.827768 21.7086 4.20418 21.1162 5.32149C20.5197 6.44697 19.3473 7.50311 18.4957 8.44508C17.9691 9.02821 18.8371 9.89678 19.3678 9.30958C20.5896 7.95575 22.4161 6.40211 22.6794 4.49778C22.8851 3.02162 22.774 0.791068 21.1326 0.138621C19.6352 -0.456736 18.1543 0.89709 17.3027 1.96139C16.048 3.52727 15.4639 5.4683 15.1923 7.42156C15.0854 8.20042 16.2743 8.53479 16.3853 7.75594Z" fill="#46A358"/>
<path d="M19.454 9.46465C20.8897 8.27393 23.5555 7.44614 25.3079 8.5186C27.5787 9.91321 24.3618 10.7492 23.3004 10.8185C22.165 10.896 21.0296 10.8266 19.9024 10.6961C19.1167 10.6064 19.1208 11.8298 19.9024 11.9195C21.7454 12.1315 24.2342 12.4047 25.9497 11.4995C27.0152 10.9367 27.7803 9.57475 27.1262 8.42889C26.394 7.14439 24.333 6.83447 22.996 6.87117C21.3381 6.92011 19.8448 7.55624 18.586 8.60016C17.9731 9.1058 18.8493 9.9703 19.454 9.46465Z" fill="#46A358"/>
<path d="M19.5858 11.8786C20.857 12.3434 22.1199 13.0448 22.8439 14.2274C23.749 15.7117 23.7695 18.4438 21.1367 17.9341C18.8207 17.4855 17.1464 15.047 16.6733 12.9306C16.5005 12.164 15.3116 12.4861 15.4844 13.2568C15.904 15.1408 16.953 16.8045 18.5245 17.9585C19.7586 18.8679 21.9266 19.9526 23.3787 18.9209C24.872 17.8607 24.872 15.6668 24.1974 14.158C23.3993 12.3801 21.7003 11.3484 19.9232 10.696C19.1662 10.4269 18.8453 11.6094 19.5858 11.8786Z" fill="#46A358"/>
<path d="M7.10456 15.2469C3.50089 17.4 0.843396 19.7977 0.213989 24.112C-0.473012 28.7974 0.625366 33.6949 1.62913 38.2579C1.79779 39.0286 2.98667 38.7024 2.81801 37.9317C1.92943 33.8947 1.02029 29.7109 1.29591 25.5556C1.59622 21.0252 3.96575 18.5499 7.72163 16.3072C8.40451 15.8994 7.78745 14.8391 7.10456 15.2469Z" fill="#46A358"/>
<path d="M23.0085 13.8644C28.0479 14.2559 31.6145 18.2684 32.9679 22.8641C34.4407 27.8675 33.6179 33.1361 32.8157 38.1762C32.6923 38.9469 33.8812 39.2772 34.0046 38.5024C34.9425 32.5896 35.8846 26.3098 33.4616 20.6091C31.6268 16.2907 27.8175 13.0162 23.0085 12.6411C22.2145 12.5799 22.2186 13.8032 23.0085 13.8644Z" fill="#46A358"/>
<path d="M8.32628 17.7832C2.2996 22.1302 4.25365 31.9576 5.47132 38.0662C5.62353 38.8369 6.81653 38.5107 6.6602 37.74C6.02257 34.543 5.43019 31.3093 5.49189 28.0389C5.5536 24.8582 6.15832 20.8497 8.94746 18.8394C9.5851 18.3786 8.97215 17.3184 8.32628 17.7832Z" fill="#46A358"/>
<path d="M15.0936 13.8277C12.8516 17.249 11.4035 21.074 10.877 25.1273C10.6014 27.2518 10.5808 29.4049 10.8358 31.5335C11.1115 33.8578 11.8643 36.0925 12.144 38.4168C12.2345 39.1875 13.4728 39.1997 13.3782 38.4168C12.8927 34.3594 11.6421 30.6242 11.9712 26.473C12.3127 22.1627 13.7937 18.0605 16.1632 14.4435C16.591 13.7829 15.5256 13.1712 15.0936 13.8277Z" fill="#46A358"/>
<path d="M18.1088 17.6079C19.9477 20.6173 20.3344 24.0223 20.6552 27.4599C20.9885 31.0361 21.26 34.6164 21.4903 38.2008C21.5397 38.9837 22.7738 38.9878 22.7245 38.2008C22.4653 34.1434 22.1732 30.086 21.7536 26.0408C21.4245 22.8642 20.8692 19.7528 19.1743 16.9881C18.7629 16.3193 17.6933 16.931 18.1088 17.6079Z" fill="#46A358"/>
<path d="M23.7242 18.1788C28.3193 23.9081 28.4715 31.2237 28.307 38.2049C28.2905 38.9919 29.5246 38.9919 29.5411 38.2049C29.7139 30.8404 29.4177 23.3291 24.5963 17.3143C24.1027 16.6986 23.2347 17.5712 23.7242 18.1788Z" fill="#46A358"/>
<path d="M15.9532 19.6713C15.8833 19.9445 15.8174 20.2136 15.7475 20.4868C15.6529 20.8701 16.2453 21.0333 16.344 20.6499C16.4139 20.3767 16.4798 20.1076 16.5497 19.8344C16.6443 19.4551 16.0519 19.292 15.9532 19.6713Z" fill="#46A358"/>
<path d="M17.2861 21.7957C17.2861 22.1015 17.2861 22.4074 17.2861 22.7132C17.2861 23.1087 17.9032 23.1087 17.9032 22.7132C17.9032 22.4074 17.9032 22.1015 17.9032 21.7957C17.9032 21.4001 17.2861 21.4001 17.2861 21.7957Z" fill="#46A358"/>
<path d="M14.3077 23.7328C14.2748 24.1732 14.2377 24.6177 14.2048 25.0581C14.176 25.4496 14.7931 25.4496 14.8219 25.0581C14.8548 24.6177 14.8918 24.1732 14.9247 23.7328C14.9535 23.3413 14.3365 23.3413 14.3077 23.7328Z" fill="#46A358"/>
<path d="M18.3147 25.8735C18.3147 26.2813 18.3147 26.6891 18.3147 27.0968C18.3147 27.4924 18.9318 27.4924 18.9318 27.0968C18.9318 26.6891 18.9318 26.2813 18.9318 25.8735C18.9318 25.478 18.3147 25.478 18.3147 25.8735Z" fill="#46A358"/>
<path d="M15.9492 28.1163C15.9492 28.5567 15.9492 29.0012 15.9492 29.4416C15.9492 29.8371 16.5663 29.8371 16.5663 29.4416C16.5663 29.0012 16.5663 28.5567 16.5663 28.1163C16.5663 27.7208 15.9492 27.7208 15.9492 28.1163Z" fill="#46A358"/>
<path d="M14.6123 32.6018C14.6123 33.2135 14.6123 33.8252 14.6123 34.4368C14.6123 34.8324 15.2294 34.8324 15.2294 34.4368C15.2294 33.8252 15.2294 33.2135 15.2294 32.6018C15.2294 32.2063 14.6123 32.2063 14.6123 32.6018Z" fill="#46A358"/>
<path d="M12.7816 28.6016C12.8515 29.0094 12.9256 29.4172 12.9955 29.8249C13.0613 30.2123 13.6578 30.0492 13.592 29.6618C13.522 29.254 13.448 28.8463 13.3781 28.4385C13.3081 28.0552 12.7116 28.2183 12.7816 28.6016Z" fill="#46A358"/>
<path d="M17.5001 34.6408C17.533 35.0486 17.5701 35.4564 17.603 35.8642C17.6359 36.2556 18.2529 36.2556 18.22 35.8642C18.1871 35.4564 18.1501 35.0486 18.1172 34.6408C18.0843 34.2494 17.4631 34.2453 17.5001 34.6408Z" fill="#46A358"/>
<path d="M19.3472 30.0533C19.3801 30.4611 19.4172 30.8689 19.4501 31.2766C19.483 31.664 20.1 31.6681 20.0671 31.2766C20.0342 30.8689 19.9972 30.4611 19.9643 30.0533C19.9314 29.6618 19.3143 29.6578 19.3472 30.0533Z" fill="#46A358"/>
<path d="M26.4311 16.4009C26.9083 16.8128 27.3855 17.2247 27.8627 17.6324C28.163 17.8893 28.599 17.4571 28.2987 17.2002C27.8215 16.7883 27.3443 16.3765 26.8671 15.9687C26.571 15.7118 26.1308 16.14 26.4311 16.4009Z" fill="#46A358"/>
<path d="M26.6901 19.8058C26.9575 20.2829 27.229 20.764 27.4964 21.2411C27.6898 21.5837 28.2246 21.2779 28.0312 20.9312C27.7638 20.4541 27.4923 19.973 27.2249 19.4959C27.0275 19.1533 26.4968 19.4632 26.6901 19.8058Z" fill="#46A358"/>
<path d="M29.1627 20.0056C29.4671 20.4174 29.7715 20.8293 30.0759 21.2371C30.3063 21.5511 30.8452 21.2452 30.6107 20.9272C30.3063 20.5153 30.0019 20.1034 29.6975 19.6957C29.463 19.3858 28.9282 19.6875 29.1627 20.0056Z" fill="#46A358"/>
<path d="M30.6846 25.3394C30.7874 26.053 30.8944 26.7666 30.9972 27.4802C31.0548 27.8676 31.6472 27.7045 31.5937 27.3171C31.4909 26.6035 31.3839 25.8899 31.2811 25.1763C31.2194 24.7889 30.627 24.9561 30.6846 25.3394Z" fill="#46A358"/>
<path d="M28.6114 23.5085C28.7142 23.8469 28.8171 24.1895 28.9199 24.5279C29.0351 24.9031 29.6275 24.744 29.5164 24.3648C29.4136 24.0263 29.3107 23.6838 29.2079 23.3453C29.0927 22.9702 28.4962 23.1292 28.6114 23.5085Z" fill="#46A358"/>
<path d="M31.8818 31.1746C31.9271 31.6599 31.9188 32.1452 31.8407 32.6263C31.779 33.0096 32.3714 33.1768 32.4372 32.7894C32.5236 32.2512 32.5524 31.717 32.503 31.1746C32.4619 30.7873 31.8448 30.7832 31.8818 31.1746Z" fill="#46A358"/>
<path d="M30.4502 33.1115C30.4502 33.4867 30.4502 33.8578 30.4502 34.2329C30.4502 34.6285 31.0673 34.6285 31.0673 34.2329C31.0673 33.8578 31.0673 33.4867 31.0673 33.1115C31.0673 32.716 30.4502 32.716 30.4502 33.1115Z" fill="#46A358"/>
<path d="M31.0879 22.8928C31.2565 23.3006 31.4293 23.7084 31.598 24.1162C31.6638 24.2711 31.8037 24.3771 31.9764 24.3282C32.1204 24.2915 32.2562 24.1039 32.1904 23.953C32.0217 23.5453 31.8489 23.1375 31.6803 22.7297C31.6144 22.5747 31.4746 22.4687 31.3018 22.5177C31.1578 22.5544 31.0262 22.7419 31.0879 22.8928Z" fill="#46A358"/>
<path d="M29.936 29.9513C29.936 30.1878 29.936 30.4284 29.936 30.6649C29.936 31.0605 30.5531 31.0605 30.5531 30.6649C30.5531 30.4284 30.5531 30.1878 30.5531 29.9513C30.5531 29.5558 29.936 29.5558 29.936 29.9513Z" fill="#46A358"/>
<path d="M31.1701 36.7816C31.1537 37.0712 31.0837 37.3485 30.9768 37.6176C30.9151 37.7725 31.0467 37.952 31.1907 37.9927C31.3676 38.0417 31.5075 37.9316 31.5692 37.7807C31.7008 37.4586 31.7666 37.1283 31.7872 36.7816C31.8119 36.3861 31.1948 36.3902 31.1701 36.7816Z" fill="#46A358"/>
<path d="M5.29048 18.8842C5.08068 19.186 4.87088 19.4877 4.65696 19.7895C4.4307 20.1157 4.96549 20.4216 5.19175 20.0994C5.40155 19.7976 5.61136 19.4959 5.82527 19.1941C6.04742 18.8679 5.51263 18.5621 5.29048 18.8842Z" fill="#46A358"/>
<path d="M3.52969 23.3452C3.45153 23.7163 3.37749 24.0874 3.29932 24.4625C3.22116 24.8458 3.81355 25.013 3.89582 24.6256C3.97398 24.2546 4.04803 23.8835 4.12619 23.5083C4.20435 23.125 3.60786 22.9619 3.52969 23.3452Z" fill="#46A358"/>
<path d="M3.33222 21.1229C3.00723 21.5511 2.76452 22.0241 2.59996 22.5338C2.47655 22.909 3.07305 23.068 3.19646 22.6969C3.34867 22.2361 3.57493 21.8202 3.86701 21.4328C4.10561 21.1148 3.5667 20.813 3.33222 21.1229Z" fill="#46A358"/>
<path d="M2.07758 25.1802C2.00353 25.69 1.92537 26.1956 1.85132 26.7053C1.79373 27.0886 2.39023 27.2558 2.44782 26.8684C2.52187 26.3587 2.60003 25.8531 2.67408 25.3434C2.73167 24.956 2.13517 24.7888 2.07758 25.1802Z" fill="#46A358"/>
<path d="M2.69467 28.1163C2.64119 28.626 2.6741 29.1276 2.77283 29.6292C2.84687 30.0165 3.44337 29.8534 3.36932 29.466C3.28293 29.0175 3.26648 28.5689 3.31585 28.1163C3.34876 27.7248 2.73169 27.7289 2.69467 28.1163Z" fill="#46A358"/>
<path d="M3.20055 31.9903C3.23346 32.2962 3.27049 32.602 3.3034 32.9078C3.31985 33.071 3.43093 33.2137 3.61193 33.2137C3.76414 33.2137 3.94103 33.075 3.92046 32.9078C3.88755 32.602 3.85053 32.2962 3.81762 31.9903C3.80117 31.8272 3.69009 31.6845 3.50909 31.6845C3.35688 31.6845 3.1841 31.8232 3.20055 31.9903Z" fill="#46A358"/>
<path d="M2.20082 34.2902C2.43942 34.6776 2.61219 35.0854 2.71915 35.5298C2.81377 35.9132 3.40615 35.7501 3.31565 35.3667C3.19635 34.8774 2.99889 34.4125 2.73561 33.9803C2.5258 33.6459 1.99513 33.9558 2.20082 34.2902Z" fill="#46A358"/>
<path d="M3.51731 36.8632C3.58725 37.0345 3.65307 37.2017 3.723 37.373C3.78471 37.5238 3.92869 37.6339 4.10147 37.585C4.24956 37.5442 4.3812 37.3648 4.31538 37.2099C4.24545 37.0386 4.17963 36.8714 4.1097 36.7001C4.04799 36.5492 3.90401 36.4391 3.73123 36.4881C3.58725 36.5248 3.45561 36.7083 3.51731 36.8632Z" fill="#46A358"/>
</g>
<defs>
<clipPath id="clip0_11_1506">
<rect width="35" height="39" fill="white"/>
</clipPath>
</defs>
</svg>
